<svg xmlns="http://www.w3.org/2000/svg" width="142" height="141.179" viewBox="0 0 142 141.179"><defs><style>.a{fill:#fff;}.b{fill:rgba(255,255,255,0);stroke-linejoin:round;}.c,.d{stroke:none;}.d{fill:#fff;}</style></defs><g transform="translate(-881 -1596.75)"><path class="a" d="M952,1737.93a71.736,71.736,0,0,1-16.608-1.942,70.891,70.891,0,0,1-15.207-5.525l1.194-2.056A68.247,68.247,0,0,0,952,1735.56c37.832,0,68.61-30.6,68.61-68.21a68.015,68.015,0,0,0-30.74-56.887l1.2-2.071a71.1,71.1,0,0,1,23.177,24.973,70.256,70.256,0,0,1-12.045,83.891A70.985,70.985,0,0,1,952,1737.93Zm-39.019-11.606h0a71.094,71.094,0,0,1-23.214-24.979,70.256,70.256,0,0,1,12.03-83.919A70.984,70.984,0,0,1,952,1596.75a71.731,71.731,0,0,1,16.682,1.96,70.887,70.887,0,0,1,15.266,5.573l-1.2,2.071A68.222,68.222,0,0,0,952,1599.14c-37.832,0-68.611,30.6-68.611,68.21a68.005,68.005,0,0,0,30.787,56.918l-1.2,2.055Z"/><g class="b"><path class="c" d="M 937.5 1698.086669921875 L 937.5 1639.912841796875 L 978.4033813476563 1668.999755859375 L 937.5 1698.086669921875 Z"/><path class="d" d="M 939 1642.820190429688 L 939 1695.179321289063 L 975.8150024414063 1668.999755859375 L 939 1642.820190429688 M 936 1637.005615234375 L 980.99169921875 1668.999755859375 L 936 1700.993896484375 L 936 1637.005615234375 Z"/></g></g></svg>